<?xml version="1.0" encoding="UTF-8" standalone="no"?>
<svg
   xmlns:dc="http://purl.org/dc/elements/1.1/"
   xmlns:cc="http://creativecommons.org/ns#"
   xmlns:rdf="http://www.w3.org/1999/02/22-rdf-syntax-ns#"
   xmlns:svg="http://www.w3.org/2000/svg"
   xmlns="http://www.w3.org/2000/svg"
   xmlns:sodipodi="http://sodipodi.sourceforge.net/DTD/sodipodi-0.dtd"
   xmlns:inkscape="http://www.inkscape.org/namespaces/inkscape"
   width="340.15747"
   height="250.15747"
   viewBox="0 0 90 66.18753"
   version="1.1"
   id="svg8"
   inkscape:version="1.0.2 (1.0.2+r75+1)"
   sodipodi:docname="logo-final-340x250-option4.svg">
  <defs
     id="defs2" />
  <sodipodi:namedview
     id="base"
     pagecolor="#ffffff"
     bordercolor="#666666"
     borderopacity="1.0"
     inkscape:pageopacity="0"
     inkscape:pageshadow="2"
     inkscape:zoom="1.4142136"
     inkscape:cx="268.62833"
     inkscape:cy="153.87247"
     inkscape:document-units="mm"
     inkscape:current-layer="g1207"
     inkscape:document-rotation="0"
     showgrid="false"
     inkscape:object-nodes="true"
     inkscape:window-width="1920"
     inkscape:window-height="1027"
     inkscape:window-x="0"
     inkscape:window-y="27"
     inkscape:window-maximized="1"
     inkscape:pagecheckerboard="true"
     units="px" />
  <metadata
     id="metadata5">
    <rdf:RDF>
      <cc:Work
         rdf:about="">
        <dc:format>image/svg+xml</dc:format>
        <dc:type
           rdf:resource="http://purl.org/dc/dcmitype/StillImage" />
        <dc:title></dc:title>
      </cc:Work>
    </rdf:RDF>
  </metadata>
  <g
     inkscape:label="Layer 1"
     inkscape:groupmode="layer"
     id="layer1">
    <g
       id="g1207"
       transform="translate(2.0465221,-11.397941)">
      <path
         id="rect843"
         style="color:#000000;font-style:normal;font-variant:normal;font-weight:normal;font-stretch:normal;font-size:medium;line-height:normal;font-family:sans-serif;font-variant-ligatures:normal;font-variant-position:normal;font-variant-caps:normal;font-variant-numeric:normal;font-variant-alternates:normal;font-variant-east-asian:normal;font-feature-settings:normal;font-variation-settings:normal;text-indent:0;text-align:start;text-decoration:none;text-decoration-line:none;text-decoration-style:solid;text-decoration-color:#000000;letter-spacing:normal;word-spacing:normal;text-transform:none;writing-mode:lr-tb;direction:ltr;text-orientation:mixed;dominant-baseline:auto;baseline-shift:baseline;text-anchor:start;white-space:normal;shape-padding:0;shape-margin:0;inline-size:0;clip-rule:nonzero;display:inline;overflow:visible;visibility:visible;opacity:1;isolation:auto;mix-blend-mode:normal;color-interpolation:sRGB;color-interpolation-filters:linearRGB;solid-color:#000000;solid-opacity:1;vector-effect:none;fill:#7485ec;fill-opacity:1;fill-rule:evenodd;stroke:none;stroke-width:3.77953;stroke-linecap:round;stroke-linejoin:round;stroke-miterlimit:4;stroke-dasharray:none;stroke-dashoffset:0;stroke-opacity:1;color-rendering:auto;image-rendering:auto;shape-rendering:auto;text-rendering:auto;enable-background:accumulate;stop-color:#000000;stop-opacity:1"
         transform="matrix(0.26458333,0,0,0.26458333,-2.0465221,11.397941)"
         d="m 123.94727,6.6445312 a 12.284693,12.284693 0 0 0 -8.39258,3.3964848 L 6.1757812,114.4043 a 12.284693,12.284693 0 0 0 -0.40625,17.36718 L 110.13477,241.15039 A 12.284693,12.284693 0 0 0 127.5,241.55859 L 236.87891,137.19336 a 12.284693,12.284693 0 0 0 0.4082,-17.36719 L 171.7832,51.175781 c -5.94308,5.635438 -11.84995,11.306116 -17.64062,17.097657 l 56.89062,59.626952 -91.60547,87.4043 -87.404292,-91.60547 91.603512,-87.406251 15.86719,16.630859 c 5.794,-5.788135 11.69978,-11.462313 17.64258,-17.097656 L 132.92188,10.447266 a 12.284693,12.284693 0 0 0 -8.97461,-3.8027348 z" />
      <path
         id="path212"
         style="color:#000000;font-style:normal;font-variant:normal;font-weight:normal;font-stretch:normal;font-size:medium;line-height:normal;font-family:sans-serif;font-variant-ligatures:normal;font-variant-position:normal;font-variant-caps:normal;font-variant-numeric:normal;font-variant-alternates:normal;font-variant-east-asian:normal;font-feature-settings:normal;font-variation-settings:normal;text-indent:0;text-align:start;text-decoration:none;text-decoration-line:none;text-decoration-style:solid;text-decoration-color:#000000;letter-spacing:normal;word-spacing:normal;text-transform:none;writing-mode:lr-tb;direction:ltr;text-orientation:mixed;dominant-baseline:auto;baseline-shift:baseline;text-anchor:start;white-space:normal;shape-padding:0;shape-margin:0;inline-size:0;clip-rule:nonzero;display:inline;overflow:visible;visibility:visible;opacity:1;isolation:auto;mix-blend-mode:normal;color-interpolation:sRGB;color-interpolation-filters:linearRGB;solid-color:#000000;solid-opacity:1;vector-effect:none;fill:#b7c3f5;fill-opacity:1;fill-rule:evenodd;stroke:none;stroke-width:1;stroke-linecap:round;stroke-linejoin:round;stroke-miterlimit:4;stroke-dasharray:none;stroke-dashoffset:0;stroke-opacity:1;color-rendering:auto;image-rendering:auto;shape-rendering:auto;text-rendering:auto;enable-background:accumulate;stop-color:#000000;stop-opacity:1"
         d="m 52.746917,14.314991 a 3.250325,3.250325 0 0 0 -0.02635,0.02553 l -3.85e-4,3.63e-4 -28.71539,27.845616 a 3.250325,3.250325 0 0 0 -0.07045,4.59607 l 10.388755,10.713373 c 0.935483,-0.889285 1.876747,-1.772602 2.813599,-2.660268 0.635227,-0.603119 1.270609,-1.206056 1.905689,-1.80929 l -8.179494,-8.434743 24.050021,-23.321806 23.31997,24.050333 -24.0496,23.31999 -7.591357,-7.828724 c -0.06493,0.06493 -0.127435,0.131644 -0.192758,0.196324 -0.309736,0.306717 -0.634622,0.597317 -0.952038,0.896075 l -3.580874,3.370377 9.914044,10.224845 a 3.250325,3.250325 0 0 0 4.594985,0.07005 L 85.091026,47.723853 a 3.250325,3.250325 0 0 0 0.07119,-4.596038 L 57.31658,14.412424 a 3.250325,3.250325 0 0 0 -4.569663,-0.09743 z" />
    </g>
  </g>
</svg>
