<?xml version="1.0" standalone="no"?>
<!DOCTYPE svg PUBLIC "-//W3C//DTD SVG 20010904//EN"
 "http://www.w3.org/TR/2001/REC-SVG-20010904/DTD/svg10.dtd">
<svg version="1.0" xmlns="http://www.w3.org/2000/svg"
 width="680.000000pt" height="680.000000pt" viewBox="0 0 680.000000 680.000000"
 preserveAspectRatio="xMidYMid meet">
<metadata>
Created by potrace 1.11, written by Peter Selinger 2001-2013
</metadata>
<g transform="translate(0.000000,680.000000) scale(0.100000,-0.100000)"
fill="#000000" stroke="none">
<path d="M2382 5745 c-26 -12 -66 -39 -88 -61 -54 -51 -373 -355 -439 -419
-29 -27 -95 -90 -146 -139 -107 -102 -411 -391 -504 -481 -35 -33 -132 -125
-215 -205 -181 -172 -197 -187 -421 -401 -96 -92 -201 -192 -234 -223 -264
-249 -284 -276 -285 -379 0 -99 17 -123 300 -417 58 -61 372 -389 440 -460 97
-103 355 -372 410 -430 30 -32 125 -131 210 -220 206 -216 219 -229 410 -430
91 -95 187 -196 213 -224 217 -228 244 -248 346 -249 99 -1 118 14 447 330 70
67 313 298 440 419 l65 61 87 -90 c48 -50 119 -122 157 -162 39 -40 169 -174
290 -299 207 -214 262 -262 310 -273 83 -18 167 0 225 48 17 15 144 136 282
270 395 385 768 746 981 952 90 87 341 331 666 645 330 321 324 314 324 427 0
87 -18 121 -117 223 -194 200 -288 297 -481 496 -115 120 -257 266 -315 325
-58 59 -215 222 -350 361 -135 139 -281 290 -325 335 -44 45 -186 191 -315
325 -314 325 -313 323 -365 336 -59 14 -140 7 -185 -16 -23 -12 -101 -79 -174
-150 -236 -230 -348 -339 -531 -515 -99 -96 -230 -223 -291 -282 -197 -192
-603 -585 -702 -682 -509 -492 -563 -546 -584 -590 -28 -59 -29 -140 -1 -201
22 -49 28 -55 370 -407 127 -131 283 -292 346 -357 l115 -119 73 69 c40 38
115 110 166 159 52 50 99 92 104 93 20 8 5 27 -110 145 -66 67 -156 160 -201
207 -45 47 -130 134 -188 193 l-106 109 146 141 c178 174 591 574 672 651 l58
57 65 -68 c36 -37 111 -116 166 -174 56 -59 176 -184 267 -279 91 -95 209
-219 262 -274 l97 -101 -89 -85 c-48 -47 -155 -149 -236 -226 -82 -78 -178
-170 -214 -204 -36 -34 -127 -121 -203 -194 -76 -72 -167 -158 -201 -191 -120
-115 -417 -398 -676 -645 -84 -80 -166 -158 -182 -174 l-30 -29 -104 109
c-298 311 -408 426 -475 497 -41 43 -108 114 -149 156 -41 43 -142 149 -225
236 -82 87 -175 183 -205 215 -30 31 -127 133 -215 225 -88 93 -206 216 -262
274 -57 58 -103 111 -103 117 0 6 70 78 156 160 87 82 188 179 226 216 39 37
128 122 200 190 71 68 165 157 207 198 43 41 149 143 236 225 87 83 186 177
220 210 35 33 131 125 215 205 84 80 192 183 239 229 134 130 104 135 272 -40
79 -83 146 -155 147 -160 8 -22 37 1 200 159 l172 167 -67 72 c-95 99 -280
293 -371 387 -46 47 -95 87 -122 99 -63 28 -140 29 -198 2z m2099 -774 c153
-157 432 -444 713 -735 48 -50 200 -206 336 -346 484 -499 525 -542 528 -549
1 -4 -104 -111 -234 -237 -372 -361 -428 -415 -670 -651 -126 -121 -275 -265
-331 -320 -55 -54 -201 -195 -323 -313 -123 -118 -229 -221 -237 -229 -13 -12
-31 3 -140 115 -69 71 -191 197 -272 280 -81 83 -151 155 -154 162 -6 9 45 63
218 227 224 214 398 380 445 425 32 30 133 127 225 215 203 194 218 215 221
310 4 114 11 104 -305 435 -87 91 -200 209 -252 264 -52 54 -121 127 -154 161
-183 190 -361 379 -368 390 -8 15 -6 17 294 305 100 96 202 196 228 222 25 26
49 48 52 48 3 0 84 -80 180 -179z"/>
</g>
</svg>
